<svg xmlns="http://www.w3.org/2000/svg" xmlns:xlink="http://www.w3.org/1999/xlink" width="500" zoomAndPan="magnify" viewBox="0 0 375 374.999991" height="500" preserveAspectRatio="xMidYMid meet" version="1.0"><defs><g/></defs><g fill="#212412" fill-opacity="1"><g transform="translate(357.419947, 116.806973)"><g><path d="M -17.90625 1.015625 C -23.757812 1.015625 -28.820312 3.097656 -33.09375 7.265625 C -37.375 11.429688 -39.515625 16.550781 -39.515625 22.625 L -39.515625 213.109375 C -39.515625 218.960938 -37.375 224.023438 -33.09375 228.296875 C -28.820312 232.578125 -23.757812 234.71875 -17.90625 234.71875 C -17.226562 234.71875 -16.890625 234.945312 -16.890625 235.40625 C -16.890625 236.082031 -17.226562 236.421875 -17.90625 236.421875 L -187.109375 236.421875 C -187.785156 236.421875 -188.125 236.082031 -188.125 235.40625 C -188.125 235.40625 -188.125 233.769531 -188.125 230.5 C -188.125 227.238281 -188.125 223.128906 -188.125 218.171875 C -188.125 213.222656 -188.125 208.269531 -188.125 203.3125 C -188.125 198.363281 -188.125 194.253906 -188.125 190.984375 C -188.125 187.722656 -188.125 186.09375 -188.125 186.09375 C -188.125 185.414062 -187.785156 185.078125 -187.109375 185.078125 C -186.429688 185.078125 -186.09375 185.414062 -186.09375 186.09375 C -186.09375 194.875 -183.894531 202.976562 -179.5 210.40625 C -175.113281 217.832031 -169.257812 223.738281 -161.9375 228.125 C -154.625 232.519531 -146.460938 234.71875 -137.453125 234.71875 L -54.03125 234.71875 C -58.3125 232.925781 -61.800781 230.054688 -64.5 226.109375 C -67.207031 222.171875 -68.5625 217.835938 -68.5625 213.109375 L -68.5625 118.546875 L -113.8125 118.546875 C -119.664062 118.546875 -124.675781 120.679688 -128.84375 124.953125 C -133.007812 129.234375 -135.09375 134.300781 -135.09375 140.15625 C -135.09375 140.832031 -135.429688 141.171875 -136.109375 141.171875 C -136.785156 141.171875 -137.125 140.832031 -137.125 140.15625 L -137.125 95.234375 C -137.125 94.566406 -136.785156 94.234375 -136.109375 94.234375 C -135.429688 94.234375 -135.09375 94.566406 -135.09375 95.234375 C -135.09375 101.316406 -133.007812 106.441406 -128.84375 110.609375 C -124.675781 114.773438 -119.664062 116.859375 -113.8125 116.859375 L -68.5625 116.859375 L -68.5625 1.015625 L -137.453125 1.015625 C -146.460938 1.015625 -154.625 3.207031 -161.9375 7.59375 C -169.257812 11.988281 -175.113281 17.84375 -179.5 25.15625 C -183.894531 32.476562 -186.09375 40.640625 -186.09375 49.640625 C -186.09375 50.097656 -186.429688 50.328125 -187.109375 50.328125 C -187.785156 50.328125 -188.125 50.097656 -188.125 49.640625 L -188.125 0 C -188.125 -0.675781 -187.785156 -1.015625 -187.109375 -1.015625 L -17.90625 -1.015625 C -17.226562 -1.015625 -16.890625 -0.675781 -16.890625 0 C -16.890625 0.675781 -17.226562 1.015625 -17.90625 1.015625 Z M -17.90625 1.015625 "/></g></g></g><g fill="#212412" fill-opacity="1"><g transform="translate(11.202585, 258.181106)"><g><path d="M 17.90625 -1.015625 C 23.757812 -1.015625 28.820312 -3.097656 33.09375 -7.265625 C 37.375 -11.429688 39.515625 -16.550781 39.515625 -22.625 L 39.515625 -213.109375 C 39.515625 -218.960938 37.375 -224.023438 33.09375 -228.296875 C 28.820312 -232.578125 23.757812 -234.71875 17.90625 -234.71875 C 17.226562 -234.71875 16.890625 -234.945312 16.890625 -235.40625 C 16.890625 -236.082031 17.226562 -236.421875 17.90625 -236.421875 L 187.109375 -236.421875 C 187.785156 -236.421875 188.125 -236.082031 188.125 -235.40625 C 188.125 -235.40625 188.125 -233.769531 188.125 -230.5 C 188.125 -227.238281 188.125 -223.128906 188.125 -218.171875 C 188.125 -213.222656 188.125 -208.269531 188.125 -203.3125 C 188.125 -198.363281 188.125 -194.253906 188.125 -190.984375 C 188.125 -187.722656 188.125 -186.09375 188.125 -186.09375 C 188.125 -185.414062 187.785156 -185.078125 187.109375 -185.078125 C 186.429688 -185.078125 186.09375 -185.414062 186.09375 -186.09375 C 186.09375 -194.875 183.894531 -202.976562 179.5 -210.40625 C 175.113281 -217.832031 169.257812 -223.738281 161.9375 -228.125 C 154.625 -232.519531 146.460938 -234.71875 137.453125 -234.71875 L 54.03125 -234.71875 C 58.3125 -232.925781 61.800781 -230.054688 64.5 -226.109375 C 67.207031 -222.171875 68.5625 -217.835938 68.5625 -213.109375 L 68.5625 -118.546875 L 113.8125 -118.546875 C 119.664062 -118.546875 124.675781 -120.679688 128.84375 -124.953125 C 133.007812 -129.234375 135.09375 -134.300781 135.09375 -140.15625 C 135.09375 -140.832031 135.429688 -141.171875 136.109375 -141.171875 C 136.785156 -141.171875 137.125 -140.832031 137.125 -140.15625 L 137.125 -95.234375 C 137.125 -94.566406 136.785156 -94.234375 136.109375 -94.234375 C 135.429688 -94.234375 135.09375 -94.566406 135.09375 -95.234375 C 135.09375 -101.316406 133.007812 -106.441406 128.84375 -110.609375 C 124.675781 -114.773438 119.664062 -116.859375 113.8125 -116.859375 L 68.5625 -116.859375 L 68.5625 -1.015625 L 137.453125 -1.015625 C 146.460938 -1.015625 154.625 -3.207031 161.9375 -7.59375 C 169.257812 -11.988281 175.113281 -17.84375 179.5 -25.15625 C 183.894531 -32.476562 186.09375 -40.640625 186.09375 -49.640625 C 186.09375 -50.097656 186.429688 -50.328125 187.109375 -50.328125 C 187.785156 -50.328125 188.125 -50.097656 188.125 -49.640625 L 188.125 0 C 188.125 0.675781 187.785156 1.015625 187.109375 1.015625 L 17.90625 1.015625 C 17.226562 1.015625 16.890625 0.675781 16.890625 0 C 16.890625 -0.675781 17.226562 -1.015625 17.90625 -1.015625 Z M 17.90625 -1.015625 "/></g></g></g></svg>