<svg xmlns="http://www.w3.org/2000/svg" xmlns:xlink="http://www.w3.org/1999/xlink" width="500" zoomAndPan="magnify" viewBox="0 0 375 374.999991" height="500" preserveAspectRatio="xMidYMid meet" version="1.0"><defs><clipPath id="db1a4dc2c5"><path d="M 69 0.660156 L 306 0.660156 L 306 373.9375 L 69 373.9375 Z M 69 0.660156 " clip-rule="nonzero"/></clipPath><clipPath id="be6595ea77"><path d="M 126.550781 58.285156 L 248.4375 58.285156 L 248.4375 180.171875 L 126.550781 180.171875 Z M 126.550781 58.285156 " clip-rule="nonzero"/></clipPath></defs><g clip-path="url(#db1a4dc2c5)"><path fill="#000000" d="M 190.8125 0.632812 C 189.730469 0.605469 188.613281 0.59375 187.5 0.59375 C 186.394531 0.59375 185.285156 0.605469 184.179688 0.632812 C 96.476562 2.863281 42.28125 97.605469 83.054688 175.304688 L 114.402344 235.070312 L 187.5 374.410156 L 213.210938 325.382812 C 202.703125 305.855469 192.164062 286.324219 181.640625 266.796875 C 165.5625 236.960938 149.484375 207.128906 133.40625 177.316406 C 125.238281 162.167969 117.453125 146.722656 115.320312 129.398438 C 110.183594 87.613281 145.8125 50.414062 187.210938 50.253906 C 227.808594 50.09375 260.75 82.9375 260.75 123.484375 C 260.75 163.9375 227.945312 196.71875 187.5 196.71875 C 186.164062 196.71875 184.84375 196.6875 183.519531 196.621094 L 232.269531 289.097656 L 260.617188 235.070312 L 291.9375 175.304688 C 332.71875 97.605469 278.523438 2.863281 190.8125 0.632812 " fill-opacity="1" fill-rule="nonzero"/></g><g clip-path="url(#be6595ea77)"><path fill="#000000" d="M 187.511719 88.894531 C 170.765625 88.894531 157.191406 102.5 157.191406 119.246094 C 157.191406 135.960938 170.765625 149.5625 187.511719 149.5625 C 195.089844 149.5625 202.28125 146.714844 207.789062 141.757812 C 215.625 133.367188 227.902344 145.160156 219.351562 153.160156 C 210.863281 161.09375 199.558594 165.757812 187.511719 165.757812 L 187.511719 177.777344 L 187.511719 165.757812 C 183.527344 165.757812 180.289062 169 180.289062 172.980469 C 180.289062 176.933594 183.527344 180.171875 187.511719 180.171875 C 221.132812 180.171875 248.4375 152.867188 248.4375 119.246094 C 248.4375 85.589844 221.132812 58.285156 187.511719 58.285156 C 153.855469 58.285156 126.550781 85.589844 126.550781 119.214844 L 126.550781 119.246094 C 126.550781 123.199219 129.789062 126.4375 133.742188 126.4375 C 137.726562 126.4375 140.964844 123.199219 140.964844 119.246094 C 140.964844 93.527344 161.792969 72.699219 187.511719 72.699219 C 212.9375 72.699219 233.636719 93.140625 234.023438 118.5 C 234.089844 123.84375 232.273438 127.34375 225.699219 127.34375 L 181.617188 127.34375 C 177.144531 127.34375 173.519531 123.683594 173.519531 119.246094 C 173.519531 114.777344 177.144531 111.117188 181.617188 111.117188 L 216.726562 111.117188 C 213.132812 98.125 201.210938 88.894531 187.511719 88.894531 Z M 187.511719 88.894531 " fill-opacity="1" fill-rule="evenodd"/></g></svg>